# xmcd
#
# Track frame offsets:
#	150
#	16920
#	25830
#	35717
#	46567
#	58130
#	74282
#	85607
#	99897
#	107787
#
# Disc length: 1539 seconds
#
# Revision: 0
# Processed by: cddbd v1.4PL0 Copyright (c) Steve Scherf et al.
# Submitted via: dBpowerAMP V4.0
#
DISCID=7206010a
DTITLE=Various Artist - Mountain Top Favorites
DYEAR=1900
DGENRE=Bluegrass
TTITLE0=Dueling Banjos
TTITLE1=RockyTop
TTITLE2=She'll Be Comin' 'Round the Mountain
TTITLE3=Under the Double Eagle
TTITLE4=Old Joe Clark
TTITLE5=Tennessee Waltz
TTITLE6=Sally Goodin
TTITLE7=Shenandoah
TTITLE8=Turkey in the Straw
TTITLE9=Oh Susannah
EXTD=
EXTT0=
EXTT1=
EXTT2=
EXTT3=
EXTT4=
EXTT5=
EXTT6=
EXTT7=
EXTT8=
EXTT9=
PLAYORDER=
